M48
;FILE_FORMAT=3:3
METRIC,000.000
;TYPE=PLATED
T01C0.457
T02C0.800
T03C0.889
T04C1.000
T05C1.016
T06C1.143
T07C1.200
T08C1.219
T09C1.300
T10C1.778
T12C5.000
;TYPE=NON_PLATED
T11C3.048
%
T01
X+027305Y+086360
Y+285115
X+031750Y+048260
X+039370Y+040640
Y+055880
X+052070Y+139065
X+048260Y+285115
X+059055Y+123190
X+054610Y+161925
X+058420Y+187325
X+059690Y+186690
X+065405Y+149860
X+066040
X+066675
Y+157480
X+066040
X+065405
X+066675Y+153670
X+066040
X+065405
X+066675Y+161290
X+066040
X+065405
X+062230Y+185420
X+073025Y+255270
X+088265Y+158750
Y+154940
X+111760Y+034925
Y+035560
Y+036195
X+112395Y+079375
Y+077470
X+111760Y+097790
X+113030Y+103505
Y+100965
Y+108585
Y+111125
X+111760Y+123190
X+111125Y+127635
X+110490Y+149860
X+112395Y+196215
Y+210820
X+111760Y+218440
Y+223520
X+116840Y+036195
Y+035560
Y+034925
X+115570Y+093980
X+119380Y+157480
X+120015Y+162560
X+119380Y+164465
X+118110Y+196215
Y+202565
X+115570Y+226060
X+127000Y+081280
X+125730Y+149860
X+127000Y+147955
X+123190Y+163195
X+125730Y+179070
X+134620Y+095250
X+130810Y+169545
X+135890Y+170180
X+131445Y+173990
X+135890Y+187325
X+133350Y+186055
X+132080Y+184785
X+135890Y+185420
X+133350Y+208280
X+132080Y+210820
Y+218440
X+141605Y+172085
X+142240Y+201295
Y+203835
X+151130Y+092710
X+149860Y+163195
X+146050Y+184785
X+149225Y+191770
X+147955Y+193040
X+150495
X+151130Y+203200
X+147955Y+201295
X+150495
X+148590Y+208280
X+147955Y+210820
X+146050Y+208915
Y+218440
X+147955Y+224790
X+146050
X+146685Y+227330
X+155575Y+158750
X+158115Y+163195
X+153670Y+164465
X+154305Y+191770
X+156845
X+155575Y+193040
X+158115
X+155575Y+210185
X+156845Y+208915
X+154305Y+211455
X+166370Y+059690
Y+055245
X+165735
Y+059690
X+162560Y+157480
X+161925Y+164465
X+166370Y+173990
X+161925Y+191770
X+162560Y+255270
X+170815Y+059690
X+172720Y+055245
X+168910Y+077470
X+172720Y+180975
X+176530Y+184785
X+185420Y+178435
X+184150Y+177165
X+193675Y+040640
X+196850Y+049530
Y+046990
X+201930Y+048260
X+207645Y+287020
X+046990Y+183515
X+054610Y+159385
X+101600Y+121285
X+113030Y+113665
Y+106045
X+109220Y+130175
X+112395Y+182880
X+111760Y+220980
X+118110Y+113665
X+117475Y+160655
X+118745Y+182880
X+116205
X+127635
X+134620Y+205740
X+135890Y+198755
X+142240Y+182880
X+143510Y+183515
X+148590Y+168275
X+150495
X+146685Y+206375
X+151130Y+220980
X+156845Y+220345
X+164465
X+173990Y+182245
Y+243840
X+184150Y+281940
X+060960Y+186055
X+053340Y+252730
X+084607Y+179070
X+121920Y+036195
Y+035560
Y+034925
X+099695Y+103505
Y+100965
Y+108585
Y+111125
X+098425Y+116205
X+121285Y+157480
Y+161290
X+099060Y+176530
X+121920Y+210820
X+151765Y+163830
X+144780Y+173990
Y+184150
X+151765Y+191770
X+153035Y+193040
X+151765Y+200025
X+144780Y+203835
X+153035Y+210185
X+144780Y+215900
X+144145Y+218440
X+144780Y+227330
X+167005Y+059690
Y+055245
X+159385Y+158750
X+160655Y+158115
X+159385Y+164465
X+160655Y+163195
X+159385Y+191770
X+160655Y+193040
X+182245Y+252730
X+099695Y+113665
Y+106045
X+152400Y+168275
X+144780Y+206375
X+145415Y+220980
X+175260Y+183515
X+182880Y+175895
X+182245Y+243840
X+160020Y+220345
T02
X+076200Y+134620
X+073660
X+079375Y+171450
Y+173990
X+140335Y+160020
Y+162560
X+107315Y+160020
Y+162560
X+119380Y+176530
X+121920
X+061595Y+171450
Y+173990
X+068580Y+224155
X+071120
T03
X+116205Y+098425
Y+111125
X+123825Y+098425
X+121285
X+118745
X+123825Y+111125
X+121285
X+118745
X+131445Y+098425
X+128905
X+126365
X+131445Y+111125
X+128905
X+126365
X+133985Y+098425
Y+111125
X+116205Y+123444
Y+136144
X+123825Y+123444
X+121285
X+118745
X+123825Y+136144
X+121285
X+118745
X+131445Y+123444
X+128905
X+126365
X+131445Y+136144
X+128905
X+126365
X+133985Y+123444
Y+136144
T04
X+078740Y+144780
X+076200
X+086360
X+073660
X+088900
X+123190Y+147320
X+118110
T05
X+092583Y+083947
X+089027
X+091821Y+078613
X+089789Y+030861
X+092583Y+025527
X+089027
X+181102Y+083947
X+177546
X+180340Y+078613
X+178308Y+030861
X+181102Y+025527
X+177546
T06
X+104775Y+100965
Y+103505
Y+108585
Y+111125
Y+116205
Y+118745
Y+123825
Y+106045
Y+113665
Y+121285
X+107315Y+100965
Y+103505
Y+108585
Y+111125
Y+116205
Y+118745
Y+123825
Y+106045
Y+113665
Y+121285
X+103505Y+203200
Y+205740
Y+210820
Y+213360
Y+218440
Y+220980
Y+226060
Y+208280
Y+215900
Y+223520
X+106045Y+203200
Y+205740
Y+210820
Y+213360
Y+218440
Y+220980
Y+226060
Y+208280
Y+215900
Y+223520
X+139065Y+226060
Y+223520
Y+218440
Y+215900
Y+210820
Y+208280
Y+203200
Y+220980
Y+213360
Y+205740
X+136525Y+226060
Y+223520
Y+218440
Y+215900
Y+210820
Y+208280
Y+203200
Y+220980
Y+213360
Y+205740
X+088265Y+224790
X+085725
X+080645
X+090805
X+083185
X+088265Y+227330
X+085725
X+080645
X+090805
X+083185
X+093980Y+181610
X+091440
X+086360
X+096520
X+088900
X+093980Y+184150
X+091440
X+086360
X+096520
X+088900
T07
X+118110Y+188595
X+115570
X+125730
X+123190
X+120650
T08
X+081915Y+255905
X+086995
X+084455

X+117475
X+122555
X+120015

X+108585
X+113665
X+111125

X+099695
X+104775
X+102235

X+135255
X+140335
X+137795

X+144145
X+149225
X+146685

X+067945Y+211455
Y+206375
Y+208915
X+090805Y+255905
X+095885
X+093345

X+126365
X+131445
X+128905

T09
X+076835Y+281940
X+081915
X+097155
X+102235
X+112395
X+117475
X+127635
X+132715
X+107315
X+122555
T10
X+094996Y+078613
Y+030861
X+086614Y+079883
Y+029591
X+183515Y+078613
Y+030861
X+175133Y+079883
Y+029591
T11
X+037592Y+075438
Y+297180
X+104521Y+085725
Y+136779
X+117856Y+301879
X+135001Y+029718
X+137795Y+300228
X+165608Y+085725
Y+136779
X+175514Y+287655
X+198247Y+075438
X+204470Y+090805
X+198247Y+297180
X+204470Y+281940
X+053213Y+250063
X+046482Y+179578
X+077851Y+125476
X+073279Y+250063
X+115062Y+089408
X+135001
X+162560Y+250063
X+182499
X+200406Y+179578
X+029718Y+090678
X+065786Y+141859
X+118110Y+200025
X+060071Y+287655
X+029718Y+281940
X+078486Y+295529
X+097917Y+300228
X+157226Y+295529
X+035814Y+179324
X+155067Y+089408
X+189738Y+179578
T12
X+085725Y+208915
T00
M30
